<?xml version="1.0" encoding="UTF-8" standalone="no"?>
<!DOCTYPE svg PUBLIC "-//W3C//DTD SVG 1.1//EN"
 "http://www.w3.org/Graphics/SVG/1.1/DTD/svg11.dtd">
<!-- Generated by graphviz version 2.40.1 (20161225.0304)
 -->
<!-- Title: trace Pages: 1 -->
<svg width="405pt" height="1297pt"
 viewBox="0.00 0.00 405.00 1297.00" xmlns="http://www.w3.org/2000/svg" xmlns:xlink="http://www.w3.org/1999/xlink">
<g id="graph0" class="graph" transform="scale(1 1) rotate(0) translate(4 1293)">
<title>trace</title>
<polygon fill="#ffffff" stroke="transparent" points="-4,4 -4,-1293 401,-1293 401,4 -4,4"/>
<g id="clust1" class="cluster">
<title>cluster_AS2914</title>
<polygon fill="none" stroke="#608686" points="53,-377 53,-817 314,-817 314,-377 53,-377"/>
<text text-anchor="middle" x="183.5" y="-805" font-family="Times,serif" font-size="10.00" fill="#000000">AS2914</text>
<text text-anchor="middle" x="183.5" y="-795" font-family="Times,serif" font-size="10.00" fill="#000000">[NTT&#45;COMMUNICATIONS&#45;2914 &#45; NTT America, Inc., US]</text>
</g>
<g id="clust2" class="cluster">
<title>cluster_AS5089</title>
<polygon fill="none" stroke="#60baba" points="94,-1049 94,-1129 362,-1129 362,-1049 94,-1049"/>
<text text-anchor="middle" x="228" y="-1117" font-family="Times,serif" font-size="10.00" fill="#000000">AS5089</text>
<text text-anchor="middle" x="228" y="-1107" font-family="Times,serif" font-size="10.00" fill="#000000">[NTL Virgin Media Limited, GB]</text>
</g>
<g id="clust3" class="cluster">
<title>cluster_AS3549</title>
<polygon fill="none" stroke="#60ffff" points="212,-1201 212,-1281 389,-1281 389,-1201 212,-1201"/>
<text text-anchor="middle" x="300.5" y="-1269" font-family="Times,serif" font-size="10.00" fill="#000000">AS3549</text>
<text text-anchor="middle" x="300.5" y="-1259" font-family="Times,serif" font-size="10.00" fill="#000000">[LVLT&#45;3549 &#45; Level 3 Parent, LLC, US]</text>
</g>
<g id="clust4" class="cluster">
<title>cluster_AS22612</title>
<polygon fill="none" stroke="#868660" points="8,-8 8,-89 209,-89 209,-8 8,-8"/>
<text text-anchor="middle" x="108.5" y="-77" font-family="Times,serif" font-size="10.00" fill="#000000">AS22612</text>
<text text-anchor="middle" x="108.5" y="-67" font-family="Times,serif" font-size="10.00" fill="#000000">[NAMECHEAP&#45;NET &#45; Namecheap, Inc., US]</text>
</g>
<g id="clust5" class="cluster">
<title>cluster_AS6830</title>
<polygon fill="none" stroke="#86ba86" points="82,-825 82,-977 242,-977 242,-825 82,-825"/>
<text text-anchor="middle" x="162" y="-965" font-family="Times,serif" font-size="10.00" fill="#000000">AS6830</text>
<text text-anchor="middle" x="162" y="-955" font-family="Times,serif" font-size="10.00" fill="#000000">[LGI&#45;UPC Liberty Global B.V., AT]</text>
</g>
<!-- 129.250.66.101 -->
<g id="node1" class="node">
<title>129.250.66.101</title>
<ellipse fill="#608686" stroke="#000000" cx="163" cy="-763" rx="65.2572" ry="18"/>
<text text-anchor="middle" x="163" y="-758.8" font-family="Times,serif" font-size="14.00" fill="#000000">129.250.66.101</text>
</g>
<!-- 129.250.4.125 -->
<g id="node3" class="node">
<title>129.250.4.125</title>
<ellipse fill="#608686" stroke="#000000" cx="163" cy="-691" rx="60.9135" ry="18"/>
<text text-anchor="middle" x="163" y="-686.8" font-family="Times,serif" font-size="14.00" fill="#000000">129.250.4.125</text>
</g>
<!-- 129.250.66.101&#45;&gt;129.250.4.125 -->
<g id="edge10" class="edge">
<title>129.250.66.101&#45;&gt;129.250.4.125</title>
<path fill="none" stroke="#a07070" d="M163,-744.8314C163,-737.131 163,-727.9743 163,-719.4166"/>
<polygon fill="#a07070" stroke="#a07070" points="166.5001,-719.4132 163,-709.4133 159.5001,-719.4133 166.5001,-719.4132"/>
</g>
<!-- 129.250.2.18 -->
<g id="node2" class="node">
<title>129.250.2.18</title>
<ellipse fill="#608686" stroke="#000000" cx="163" cy="-619" rx="56.5701" ry="18"/>
<text text-anchor="middle" x="163" y="-614.8" font-family="Times,serif" font-size="14.00" fill="#000000">129.250.2.18</text>
</g>
<!-- 129.250.2.149 -->
<g id="node4" class="node">
<title>129.250.2.149</title>
<ellipse fill="#608686" stroke="#000000" cx="163" cy="-547" rx="60.9135" ry="18"/>
<text text-anchor="middle" x="163" y="-542.8" font-family="Times,serif" font-size="14.00" fill="#000000">129.250.2.149</text>
</g>
<!-- 129.250.2.18&#45;&gt;129.250.2.149 -->
<g id="edge12" class="edge">
<title>129.250.2.18&#45;&gt;129.250.2.149</title>
<path fill="none" stroke="#a07070" d="M163,-600.8314C163,-593.131 163,-583.9743 163,-575.4166"/>
<polygon fill="#a07070" stroke="#a07070" points="166.5001,-575.4132 163,-565.4133 159.5001,-575.4133 166.5001,-575.4132"/>
</g>
<!-- 129.250.4.125&#45;&gt;129.250.2.18 -->
<g id="edge11" class="edge">
<title>129.250.4.125&#45;&gt;129.250.2.18</title>
<path fill="none" stroke="#a07070" d="M163,-672.8314C163,-665.131 163,-655.9743 163,-647.4166"/>
<polygon fill="#a07070" stroke="#a07070" points="166.5001,-647.4132 163,-637.4133 159.5001,-647.4133 166.5001,-647.4132"/>
</g>
<!-- 129.250.2.149&#45;&gt;129.250.2.149 -->
<g id="edge13" class="edge">
<title>129.250.2.149&#45;&gt;129.250.2.149</title>
<path fill="none" stroke="#a07070" d="M204.8377,-560.2025C224.6006,-561.7368 241.9567,-557.3359 241.9567,-547 241.9567,-538.5213 230.2776,-534.0364 215.1713,-533.5453"/>
<polygon fill="#a07070" stroke="#a07070" points="214.7493,-530.0545 204.8377,-533.7975 214.9201,-537.0524 214.7493,-530.0545"/>
</g>
<!-- 129.250.3.189 -->
<g id="node6" class="node">
<title>129.250.3.189</title>
<ellipse fill="#608686" stroke="#000000" cx="163" cy="-475" rx="60.9135" ry="18"/>
<text text-anchor="middle" x="163" y="-470.8" font-family="Times,serif" font-size="14.00" fill="#000000">129.250.3.189</text>
</g>
<!-- 129.250.2.149&#45;&gt;129.250.3.189 -->
<g id="edge14" class="edge">
<title>129.250.2.149&#45;&gt;129.250.3.189</title>
<path fill="none" stroke="#a07070" d="M163,-528.8314C163,-521.131 163,-511.9743 163,-503.4166"/>
<polygon fill="#a07070" stroke="#a07070" points="166.5001,-503.4132 163,-493.4133 159.5001,-503.4133 166.5001,-503.4132"/>
</g>
<!-- 192.80.17.102 -->
<g id="node5" class="node">
<title>192.80.17.102</title>
<ellipse fill="#608686" stroke="#000000" cx="163" cy="-403" rx="60.9135" ry="18"/>
<text text-anchor="middle" x="163" y="-398.8" font-family="Times,serif" font-size="14.00" fill="#000000">192.80.17.102</text>
</g>
<!-- unk4 -->
<g id="node17" class="node">
<title>unk4</title>
<ellipse fill="none" stroke="#000000" cx="163" cy="-331" rx="27.589" ry="18"/>
<text text-anchor="middle" x="163" y="-326.8" font-family="Times,serif" font-size="14.00" fill="#000000">unk4</text>
</g>
<!-- 192.80.17.102&#45;&gt;unk4 -->
<g id="edge16" class="edge">
<title>192.80.17.102&#45;&gt;unk4</title>
<path fill="none" stroke="#a07070" d="M163,-384.8314C163,-377.131 163,-367.9743 163,-359.4166"/>
<polygon fill="#a07070" stroke="#a07070" points="166.5001,-359.4132 163,-349.4133 159.5001,-359.4133 166.5001,-359.4132"/>
</g>
<!-- 129.250.3.189&#45;&gt;192.80.17.102 -->
<g id="edge15" class="edge">
<title>129.250.3.189&#45;&gt;192.80.17.102</title>
<path fill="none" stroke="#a07070" d="M163,-456.8314C163,-449.131 163,-439.9743 163,-431.4166"/>
<polygon fill="#a07070" stroke="#a07070" points="166.5001,-431.4132 163,-421.4133 159.5001,-431.4133 166.5001,-431.4132"/>
</g>
<!-- 62.254.42.174 -->
<g id="node7" class="node">
<title>62.254.42.174</title>
<ellipse fill="#60baba" stroke="#000000" cx="163" cy="-1075" rx="60.9135" ry="18"/>
<text text-anchor="middle" x="163" y="-1070.8" font-family="Times,serif" font-size="14.00" fill="#000000">62.254.42.174</text>
</g>
<!-- unk3 -->
<g id="node16" class="node">
<title>unk3</title>
<ellipse fill="none" stroke="#000000" cx="163" cy="-1003" rx="27.589" ry="18"/>
<text text-anchor="middle" x="163" y="-998.8" font-family="Times,serif" font-size="14.00" fill="#000000">unk3</text>
</g>
<!-- 62.254.42.174&#45;&gt;unk3 -->
<g id="edge6" class="edge">
<title>62.254.42.174&#45;&gt;unk3</title>
<path fill="none" stroke="#a07070" d="M163,-1056.8314C163,-1049.131 163,-1039.9743 163,-1031.4166"/>
<polygon fill="#a07070" stroke="#a07070" points="166.5001,-1031.4132 163,-1021.4133 159.5001,-1031.4133 166.5001,-1031.4132"/>
</g>
<!-- 80.0.254.113 -->
<g id="node8" class="node">
<title>80.0.254.113</title>
<ellipse fill="#60baba" stroke="#000000" cx="298" cy="-1075" rx="56.4231" ry="18"/>
<text text-anchor="middle" x="298" y="-1070.8" font-family="Times,serif" font-size="14.00" fill="#000000">80.0.254.113</text>
</g>
<!-- unk1 -->
<g id="node14" class="node">
<title>unk1</title>
<ellipse fill="none" stroke="#000000" cx="284" cy="-1003" rx="27.589" ry="18"/>
<text text-anchor="middle" x="284" y="-998.8" font-family="Times,serif" font-size="14.00" fill="#000000">unk1</text>
</g>
<!-- 80.0.254.113&#45;&gt;unk1 -->
<g id="edge3" class="edge">
<title>80.0.254.113&#45;&gt;unk1</title>
<path fill="none" stroke="#a07070" d="M294.4672,-1056.8314C292.9302,-1048.9266 291.0947,-1039.4872 289.3932,-1030.7365"/>
<polygon fill="#a07070" stroke="#a07070" points="292.8276,-1030.0615 287.4832,-1020.9134 285.9563,-1031.3976 292.8276,-1030.0615"/>
</g>
<!-- 192.168.0.1 -->
<g id="node9" class="node">
<title>192.168.0.1</title>
<ellipse fill="#60ffff" stroke="#000000" cx="298" cy="-1227" rx="52.2268" ry="18"/>
<text text-anchor="middle" x="298" y="-1222.8" font-family="Times,serif" font-size="14.00" fill="#000000">192.168.0.1</text>
</g>
<!-- unk0 -->
<g id="node13" class="node">
<title>unk0</title>
<ellipse fill="none" stroke="#000000" cx="298" cy="-1155" rx="27.589" ry="18"/>
<text text-anchor="middle" x="298" y="-1150.8" font-family="Times,serif" font-size="14.00" fill="#000000">unk0</text>
</g>
<!-- 192.168.0.1&#45;&gt;unk0 -->
<g id="edge1" class="edge">
<title>192.168.0.1&#45;&gt;unk0</title>
<path fill="none" stroke="#a07070" d="M298,-1208.8314C298,-1201.131 298,-1191.9743 298,-1183.4166"/>
<polygon fill="#a07070" stroke="#a07070" points="301.5001,-1183.4132 298,-1173.4133 294.5001,-1183.4133 301.5001,-1183.4132"/>
</g>
<!-- 162.255.119.249 -->
<g id="node10" class="node">
<title>162.255.119.249</title>
<polygon fill="#00ff00" stroke="#000000" points="23.4185,-16.5 23.4185,-52.5 192.5815,-52.5 192.5815,-16.5 23.4185,-16.5"/>
<text text-anchor="middle" x="78.4121" y="-30.3" font-family="Times,serif" font-size="14.00" fill="#000000">162.255.119.249</text>
<polyline fill="none" stroke="#000000" points="133.4058,-16.5 133.4058,-52.5 "/>
<text text-anchor="middle" x="162.9937" y="-30.3" font-family="Times,serif" font-size="14.00" fill="#000000">http SA</text>
</g>
<!-- 84.116.135.181 -->
<g id="node11" class="node">
<title>84.116.135.181</title>
<ellipse fill="#86ba86" stroke="#000000" cx="163" cy="-851" rx="65.1093" ry="18"/>
<text text-anchor="middle" x="163" y="-846.8" font-family="Times,serif" font-size="14.00" fill="#000000">84.116.135.181</text>
</g>
<!-- 84.116.135.181&#45;&gt;129.250.66.101 -->
<g id="edge9" class="edge">
<title>84.116.135.181&#45;&gt;129.250.66.101</title>
<path fill="none" stroke="#a07070" d="M163,-832.7663C163,-820.8492 163,-805.0384 163,-791.4817"/>
<polygon fill="#a07070" stroke="#a07070" points="166.5001,-791.2103 163,-781.2103 159.5001,-791.2103 166.5001,-791.2103"/>
</g>
<!-- 84.116.135.50 -->
<g id="node12" class="node">
<title>84.116.135.50</title>
<ellipse fill="#86ba86" stroke="#000000" cx="163" cy="-923" rx="60.7661" ry="18"/>
<text text-anchor="middle" x="163" y="-918.8" font-family="Times,serif" font-size="14.00" fill="#000000">84.116.135.50</text>
</g>
<!-- 84.116.135.50&#45;&gt;84.116.135.181 -->
<g id="edge8" class="edge">
<title>84.116.135.50&#45;&gt;84.116.135.181</title>
<path fill="none" stroke="#a07070" d="M163,-904.8314C163,-897.131 163,-887.9743 163,-879.4166"/>
<polygon fill="#a07070" stroke="#a07070" points="166.5001,-879.4132 163,-869.4133 159.5001,-879.4133 166.5001,-879.4132"/>
</g>
<!-- unk0&#45;&gt;80.0.254.113 -->
<g id="edge2" class="edge">
<title>unk0&#45;&gt;80.0.254.113</title>
<path fill="none" stroke="#a07070" d="M298,-1136.8468C298,-1126.9251 298,-1114.4167 298,-1103.2492"/>
<polygon fill="#a07070" stroke="#a07070" points="301.5001,-1103.0814 298,-1093.0814 294.5001,-1103.0814 301.5001,-1103.0814"/>
</g>
<!-- unk2 -->
<g id="node15" class="node">
<title>unk2</title>
<ellipse fill="none" stroke="#000000" cx="279" cy="-923" rx="27.589" ry="18"/>
<text text-anchor="middle" x="279" y="-918.8" font-family="Times,serif" font-size="14.00" fill="#000000">unk2</text>
</g>
<!-- unk1&#45;&gt;unk2 -->
<g id="edge4" class="edge">
<title>unk1&#45;&gt;unk2</title>
<path fill="none" stroke="#a07070" d="M282.8654,-984.8468C282.2453,-974.9251 281.4635,-962.4167 280.7656,-951.2492"/>
<polygon fill="#a07070" stroke="#a07070" points="284.2471,-950.8436 280.1301,-941.0814 277.2608,-951.2803 284.2471,-950.8436"/>
</g>
<!-- unk2&#45;&gt;62.254.42.174 -->
<g id="edge5" class="edge">
<title>unk2&#45;&gt;62.254.42.174</title>
<path fill="none" stroke="#a07070" d="M269.5336,-939.9719C263.2591,-950.8301 254.6217,-965.066 246,-977 227.1799,-1003.0505 203.2401,-1030.834 185.9122,-1050.1403"/>
<polygon fill="#a07070" stroke="#a07070" points="183.2682,-1047.8459 179.1573,-1057.6108 188.4603,-1052.5408 183.2682,-1047.8459"/>
</g>
<!-- unk3&#45;&gt;84.116.135.50 -->
<g id="edge7" class="edge">
<title>unk3&#45;&gt;84.116.135.50</title>
<path fill="none" stroke="#a07070" d="M163,-984.8468C163,-974.9251 163,-962.4167 163,-951.2492"/>
<polygon fill="#a07070" stroke="#a07070" points="166.5001,-951.0814 163,-941.0814 159.5001,-951.0814 166.5001,-951.0814"/>
</g>
<!-- unk5 -->
<g id="node18" class="node">
<title>unk5</title>
<ellipse fill="none" stroke="#000000" cx="163" cy="-259" rx="27.589" ry="18"/>
<text text-anchor="middle" x="163" y="-254.8" font-family="Times,serif" font-size="14.00" fill="#000000">unk5</text>
</g>
<!-- unk4&#45;&gt;unk5 -->
<g id="edge17" class="edge">
<title>unk4&#45;&gt;unk5</title>
<path fill="none" stroke="#a07070" d="M163,-312.8314C163,-305.131 163,-295.9743 163,-287.4166"/>
<polygon fill="#a07070" stroke="#a07070" points="166.5001,-287.4132 163,-277.4133 159.5001,-287.4133 166.5001,-287.4132"/>
</g>
<!-- unk6 -->
<g id="node19" class="node">
<title>unk6</title>
<ellipse fill="none" stroke="#000000" cx="163" cy="-187" rx="27.589" ry="18"/>
<text text-anchor="middle" x="163" y="-182.8" font-family="Times,serif" font-size="14.00" fill="#000000">unk6</text>
</g>
<!-- unk5&#45;&gt;unk6 -->
<g id="edge18" class="edge">
<title>unk5&#45;&gt;unk6</title>
<path fill="none" stroke="#a07070" d="M163,-240.8314C163,-233.131 163,-223.9743 163,-215.4166"/>
<polygon fill="#a07070" stroke="#a07070" points="166.5001,-215.4132 163,-205.4133 159.5001,-215.4133 166.5001,-215.4132"/>
</g>
<!-- unk7 -->
<g id="node20" class="node">
<title>unk7</title>
<ellipse fill="none" stroke="#000000" cx="163" cy="-115" rx="27.589" ry="18"/>
<text text-anchor="middle" x="163" y="-110.8" font-family="Times,serif" font-size="14.00" fill="#000000">unk7</text>
</g>
<!-- unk6&#45;&gt;unk7 -->
<g id="edge19" class="edge">
<title>unk6&#45;&gt;unk7</title>
<path fill="none" stroke="#a07070" d="M163,-168.8314C163,-161.131 163,-151.9743 163,-143.4166"/>
<polygon fill="#a07070" stroke="#a07070" points="166.5001,-143.4132 163,-133.4133 159.5001,-143.4133 166.5001,-143.4132"/>
</g>
<!-- unk7&#45;&gt;162.255.119.249 -->
<g id="edge20" class="edge">
<title>unk7&#45;&gt;162.255.119.249:T80</title>
<path fill="none" stroke="#a07070" d="M163,-96.9489C163,-87.1966 163,-74.6922 163,-62.548"/>
<polygon fill="#a07070" stroke="#a07070" points="166.5001,-62.5 163,-52.5 159.5001,-62.5 166.5001,-62.5"/>
</g>
</g>
</svg>
